<mxfile host="app.diagrams.net" agent="Mozilla/5.0 (Windows NT 10.0; Win64; x64) AppleWebKit/537.36 (KHTML, like Gecko) Chrome/139.0.0.0 Safari/537.36 Edg/139.0.0.0" version="28.1.0">
  <diagram id="Q-HvyDp7jQCQ12iFoTfN" name="Page-1">
    <mxGraphModel dx="2037" dy="1249" grid="1" gridSize="10" guides="1" tooltips="1" connect="1" arrows="1" fold="1" page="1" pageScale="1" pageWidth="850" pageHeight="1100" math="0" shadow="0">
      <root>
        <mxCell id="0" />
        <mxCell id="1" parent="0" />
        <mxCell id="lw7sW2d9eHdYeLSf7W9c-5" value="" style="rounded=0;orthogonalLoop=1;jettySize=auto;html=1;endArrow=none;endFill=0;exitX=0.5;exitY=1;exitDx=0;exitDy=0;" edge="1" parent="1" source="lw7sW2d9eHdYeLSf7W9c-2" target="lw7sW2d9eHdYeLSf7W9c-4">
          <mxGeometry relative="1" as="geometry">
            <mxPoint x="580" y="655" as="sourcePoint" />
          </mxGeometry>
        </mxCell>
        <mxCell id="lw7sW2d9eHdYeLSf7W9c-16" value="" style="rounded=0;orthogonalLoop=1;jettySize=auto;html=1;entryX=0.5;entryY=0;entryDx=0;entryDy=0;endArrow=none;endFill=0;exitX=0.5;exitY=1;exitDx=0;exitDy=0;" edge="1" parent="1" source="lw7sW2d9eHdYeLSf7W9c-2" target="lw7sW2d9eHdYeLSf7W9c-17">
          <mxGeometry relative="1" as="geometry">
            <mxPoint x="580" y="645" as="targetPoint" />
          </mxGeometry>
        </mxCell>
        <mxCell id="lw7sW2d9eHdYeLSf7W9c-175" value="" style="rounded=0;orthogonalLoop=1;jettySize=auto;html=1;endArrow=none;endFill=0;" edge="1" parent="1" source="lw7sW2d9eHdYeLSf7W9c-2" target="lw7sW2d9eHdYeLSf7W9c-174">
          <mxGeometry relative="1" as="geometry" />
        </mxCell>
        <mxCell id="lw7sW2d9eHdYeLSf7W9c-180" value="1" style="edgeLabel;html=1;align=center;verticalAlign=middle;resizable=0;points=[];" vertex="1" connectable="0" parent="lw7sW2d9eHdYeLSf7W9c-175">
          <mxGeometry x="-0.143" y="-1" relative="1" as="geometry">
            <mxPoint as="offset" />
          </mxGeometry>
        </mxCell>
        <mxCell id="lw7sW2d9eHdYeLSf7W9c-182" value="" style="rounded=0;orthogonalLoop=1;jettySize=auto;html=1;endArrow=none;endFill=0;" edge="1" parent="1" source="lw7sW2d9eHdYeLSf7W9c-2" target="lw7sW2d9eHdYeLSf7W9c-181">
          <mxGeometry relative="1" as="geometry" />
        </mxCell>
        <mxCell id="lw7sW2d9eHdYeLSf7W9c-185" value="1" style="edgeLabel;html=1;align=center;verticalAlign=middle;resizable=0;points=[];" vertex="1" connectable="0" parent="lw7sW2d9eHdYeLSf7W9c-182">
          <mxGeometry x="0.0642" y="-1" relative="1" as="geometry">
            <mxPoint as="offset" />
          </mxGeometry>
        </mxCell>
        <mxCell id="lw7sW2d9eHdYeLSf7W9c-218" value="" style="edgeStyle=orthogonalEdgeStyle;rounded=0;orthogonalLoop=1;jettySize=auto;html=1;" edge="1" parent="1" source="lw7sW2d9eHdYeLSf7W9c-2" target="lw7sW2d9eHdYeLSf7W9c-217">
          <mxGeometry relative="1" as="geometry" />
        </mxCell>
        <mxCell id="lw7sW2d9eHdYeLSf7W9c-220" value="1" style="edgeLabel;html=1;align=center;verticalAlign=middle;resizable=0;points=[];" vertex="1" connectable="0" parent="lw7sW2d9eHdYeLSf7W9c-218">
          <mxGeometry x="-0.18" y="1" relative="1" as="geometry">
            <mxPoint as="offset" />
          </mxGeometry>
        </mxCell>
        <mxCell id="lw7sW2d9eHdYeLSf7W9c-2" value="air line" style="rounded=0;whiteSpace=wrap;html=1;" vertex="1" parent="1">
          <mxGeometry x="515" y="580" width="120" height="60" as="geometry" />
        </mxCell>
        <mxCell id="lw7sW2d9eHdYeLSf7W9c-4" value="id" style="ellipse;whiteSpace=wrap;html=1;rounded=0;" vertex="1" parent="1">
          <mxGeometry x="405" y="750" width="40" height="40" as="geometry" />
        </mxCell>
        <mxCell id="lw7sW2d9eHdYeLSf7W9c-8" value="name" style="ellipse;whiteSpace=wrap;html=1;rounded=0;" vertex="1" parent="1">
          <mxGeometry x="340" y="750" width="50" height="40" as="geometry" />
        </mxCell>
        <mxCell id="lw7sW2d9eHdYeLSf7W9c-9" value="" style="rounded=0;orthogonalLoop=1;jettySize=auto;html=1;exitX=0.5;exitY=1;exitDx=0;exitDy=0;endArrow=none;endFill=0;" edge="1" target="lw7sW2d9eHdYeLSf7W9c-8" parent="1" source="lw7sW2d9eHdYeLSf7W9c-2">
          <mxGeometry relative="1" as="geometry">
            <mxPoint x="280" y="675" as="sourcePoint" />
          </mxGeometry>
        </mxCell>
        <mxCell id="lw7sW2d9eHdYeLSf7W9c-11" value="" style="rounded=0;orthogonalLoop=1;jettySize=auto;html=1;exitX=0.5;exitY=1;exitDx=0;exitDy=0;endArrow=none;endFill=0;" edge="1" target="lw7sW2d9eHdYeLSf7W9c-12" parent="1" source="lw7sW2d9eHdYeLSf7W9c-2">
          <mxGeometry relative="1" as="geometry">
            <mxPoint x="480" y="680" as="sourcePoint" />
          </mxGeometry>
        </mxCell>
        <mxCell id="lw7sW2d9eHdYeLSf7W9c-12" value="address" style="ellipse;whiteSpace=wrap;html=1;rounded=0;" vertex="1" parent="1">
          <mxGeometry x="460" y="750" width="60" height="40" as="geometry" />
        </mxCell>
        <mxCell id="lw7sW2d9eHdYeLSf7W9c-13" value="contact_person_name" style="ellipse;whiteSpace=wrap;html=1;rounded=0;" vertex="1" parent="1">
          <mxGeometry x="540" y="750" width="130" height="40" as="geometry" />
        </mxCell>
        <mxCell id="lw7sW2d9eHdYeLSf7W9c-14" value="" style="rounded=0;orthogonalLoop=1;jettySize=auto;html=1;endArrow=none;endFill=0;exitX=0.5;exitY=1;exitDx=0;exitDy=0;" edge="1" target="lw7sW2d9eHdYeLSf7W9c-13" parent="1" source="lw7sW2d9eHdYeLSf7W9c-2">
          <mxGeometry relative="1" as="geometry">
            <mxPoint x="580" y="655" as="sourcePoint" />
          </mxGeometry>
        </mxCell>
        <mxCell id="lw7sW2d9eHdYeLSf7W9c-17" value="telephone_numbers" style="ellipse;shape=doubleEllipse;margin=3;whiteSpace=wrap;html=1;align=center;" vertex="1" parent="1">
          <mxGeometry x="680" y="745" width="140" height="40" as="geometry" />
        </mxCell>
        <mxCell id="lw7sW2d9eHdYeLSf7W9c-34" value="" style="rounded=0;orthogonalLoop=1;jettySize=auto;html=1;endArrow=none;endFill=0;exitX=0.5;exitY=1;exitDx=0;exitDy=0;" edge="1" target="lw7sW2d9eHdYeLSf7W9c-37" parent="1" source="lw7sW2d9eHdYeLSf7W9c-36">
          <mxGeometry relative="1" as="geometry">
            <mxPoint x="1210" y="640" as="sourcePoint" />
          </mxGeometry>
        </mxCell>
        <mxCell id="lw7sW2d9eHdYeLSf7W9c-35" value="" style="rounded=0;orthogonalLoop=1;jettySize=auto;html=1;entryX=0.5;entryY=0;entryDx=0;entryDy=0;endArrow=none;endFill=0;exitX=0.5;exitY=1;exitDx=0;exitDy=0;" edge="1" source="lw7sW2d9eHdYeLSf7W9c-36" target="lw7sW2d9eHdYeLSf7W9c-45" parent="1">
          <mxGeometry relative="1" as="geometry">
            <mxPoint x="1380" y="720" as="targetPoint" />
          </mxGeometry>
        </mxCell>
        <mxCell id="lw7sW2d9eHdYeLSf7W9c-36" value="employee" style="rounded=0;whiteSpace=wrap;html=1;" vertex="1" parent="1">
          <mxGeometry x="1125" y="580" width="120" height="60" as="geometry" />
        </mxCell>
        <mxCell id="lw7sW2d9eHdYeLSf7W9c-37" value="id" style="ellipse;whiteSpace=wrap;html=1;rounded=0;" vertex="1" parent="1">
          <mxGeometry x="1050" y="735" width="50" height="40" as="geometry" />
        </mxCell>
        <mxCell id="lw7sW2d9eHdYeLSf7W9c-38" value="name" style="ellipse;whiteSpace=wrap;html=1;rounded=0;" vertex="1" parent="1">
          <mxGeometry x="980" y="735" width="60" height="40" as="geometry" />
        </mxCell>
        <mxCell id="lw7sW2d9eHdYeLSf7W9c-39" value="" style="rounded=0;orthogonalLoop=1;jettySize=auto;html=1;exitX=0.5;exitY=1;exitDx=0;exitDy=0;endArrow=none;endFill=0;" edge="1" source="lw7sW2d9eHdYeLSf7W9c-36" target="lw7sW2d9eHdYeLSf7W9c-38" parent="1">
          <mxGeometry relative="1" as="geometry">
            <mxPoint x="910" y="660" as="sourcePoint" />
          </mxGeometry>
        </mxCell>
        <mxCell id="lw7sW2d9eHdYeLSf7W9c-40" value="" style="rounded=0;orthogonalLoop=1;jettySize=auto;html=1;exitX=0.5;exitY=1;exitDx=0;exitDy=0;endArrow=none;endFill=0;" edge="1" source="lw7sW2d9eHdYeLSf7W9c-36" target="lw7sW2d9eHdYeLSf7W9c-41" parent="1">
          <mxGeometry relative="1" as="geometry">
            <mxPoint x="1110" y="665" as="sourcePoint" />
          </mxGeometry>
        </mxCell>
        <mxCell id="lw7sW2d9eHdYeLSf7W9c-41" value="address" style="ellipse;whiteSpace=wrap;html=1;rounded=0;" vertex="1" parent="1">
          <mxGeometry x="1110" y="735" width="50" height="40" as="geometry" />
        </mxCell>
        <mxCell id="lw7sW2d9eHdYeLSf7W9c-42" value="birthday" style="ellipse;whiteSpace=wrap;html=1;rounded=0;" vertex="1" parent="1">
          <mxGeometry x="1170" y="735" width="70" height="40" as="geometry" />
        </mxCell>
        <mxCell id="lw7sW2d9eHdYeLSf7W9c-43" value="" style="rounded=0;orthogonalLoop=1;jettySize=auto;html=1;endArrow=none;endFill=0;exitX=0.5;exitY=1;exitDx=0;exitDy=0;" edge="1" target="lw7sW2d9eHdYeLSf7W9c-42" parent="1" source="lw7sW2d9eHdYeLSf7W9c-36">
          <mxGeometry relative="1" as="geometry">
            <mxPoint x="1210" y="640" as="sourcePoint" />
          </mxGeometry>
        </mxCell>
        <mxCell id="lw7sW2d9eHdYeLSf7W9c-45" value="gender" style="ellipse;whiteSpace=wrap;html=1;rounded=0;" vertex="1" parent="1">
          <mxGeometry x="1245" y="735" width="50" height="40" as="geometry" />
        </mxCell>
        <mxCell id="lw7sW2d9eHdYeLSf7W9c-46" value="position" style="ellipse;whiteSpace=wrap;html=1;rounded=0;" vertex="1" parent="1">
          <mxGeometry x="1300" y="735" width="60" height="40" as="geometry" />
        </mxCell>
        <mxCell id="lw7sW2d9eHdYeLSf7W9c-47" value="" style="rounded=0;orthogonalLoop=1;jettySize=auto;html=1;entryX=0.5;entryY=0;entryDx=0;entryDy=0;endArrow=none;endFill=0;exitX=0.5;exitY=1;exitDx=0;exitDy=0;" edge="1" parent="1" source="lw7sW2d9eHdYeLSf7W9c-36" target="lw7sW2d9eHdYeLSf7W9c-46">
          <mxGeometry relative="1" as="geometry">
            <mxPoint x="1220" y="650" as="sourcePoint" />
            <mxPoint x="1375" y="745" as="targetPoint" />
          </mxGeometry>
        </mxCell>
        <mxCell id="lw7sW2d9eHdYeLSf7W9c-66" value="" style="rounded=0;orthogonalLoop=1;jettySize=auto;html=1;endArrow=none;endFill=0;" edge="1" parent="1" source="lw7sW2d9eHdYeLSf7W9c-62" target="lw7sW2d9eHdYeLSf7W9c-65">
          <mxGeometry relative="1" as="geometry" />
        </mxCell>
        <mxCell id="lw7sW2d9eHdYeLSf7W9c-67" style="rounded=0;orthogonalLoop=1;jettySize=auto;html=1;entryX=0.5;entryY=1;entryDx=0;entryDy=0;endArrow=none;endFill=0;" edge="1" parent="1" source="lw7sW2d9eHdYeLSf7W9c-62" target="lw7sW2d9eHdYeLSf7W9c-64">
          <mxGeometry relative="1" as="geometry" />
        </mxCell>
        <mxCell id="lw7sW2d9eHdYeLSf7W9c-68" style="rounded=0;orthogonalLoop=1;jettySize=auto;html=1;entryX=0.5;entryY=1;entryDx=0;entryDy=0;endArrow=none;endFill=0;" edge="1" parent="1" source="lw7sW2d9eHdYeLSf7W9c-62" target="lw7sW2d9eHdYeLSf7W9c-63">
          <mxGeometry relative="1" as="geometry" />
        </mxCell>
        <mxCell id="lw7sW2d9eHdYeLSf7W9c-188" value="" style="rounded=0;orthogonalLoop=1;jettySize=auto;html=1;endArrow=none;endFill=0;exitX=1;exitY=0.5;exitDx=0;exitDy=0;shape=link;" edge="1" parent="1" source="lw7sW2d9eHdYeLSf7W9c-62" target="lw7sW2d9eHdYeLSf7W9c-187">
          <mxGeometry relative="1" as="geometry" />
        </mxCell>
        <mxCell id="lw7sW2d9eHdYeLSf7W9c-196" value="M" style="edgeLabel;html=1;align=center;verticalAlign=middle;resizable=0;points=[];" vertex="1" connectable="0" parent="lw7sW2d9eHdYeLSf7W9c-188">
          <mxGeometry x="0.1387" y="2" relative="1" as="geometry">
            <mxPoint as="offset" />
          </mxGeometry>
        </mxCell>
        <mxCell id="lw7sW2d9eHdYeLSf7W9c-213" value="" style="edgeStyle=orthogonalEdgeStyle;rounded=0;orthogonalLoop=1;jettySize=auto;html=1;" edge="1" parent="1" source="lw7sW2d9eHdYeLSf7W9c-62" target="lw7sW2d9eHdYeLSf7W9c-212">
          <mxGeometry relative="1" as="geometry" />
        </mxCell>
        <mxCell id="lw7sW2d9eHdYeLSf7W9c-224" value="1" style="edgeLabel;html=1;align=center;verticalAlign=middle;resizable=0;points=[];" vertex="1" connectable="0" parent="lw7sW2d9eHdYeLSf7W9c-213">
          <mxGeometry x="-0.1217" y="-2" relative="1" as="geometry">
            <mxPoint as="offset" />
          </mxGeometry>
        </mxCell>
        <mxCell id="lw7sW2d9eHdYeLSf7W9c-62" value="air craft" style="rounded=0;whiteSpace=wrap;html=1;" vertex="1" parent="1">
          <mxGeometry x="520" y="180" width="120" height="60" as="geometry" />
        </mxCell>
        <mxCell id="lw7sW2d9eHdYeLSf7W9c-63" value="capacity" style="ellipse;whiteSpace=wrap;html=1;rounded=0;" vertex="1" parent="1">
          <mxGeometry x="490" y="30" width="50" height="40" as="geometry" />
        </mxCell>
        <mxCell id="lw7sW2d9eHdYeLSf7W9c-64" value="id" style="ellipse;whiteSpace=wrap;html=1;rounded=0;" vertex="1" parent="1">
          <mxGeometry x="555" y="30" width="40" height="40" as="geometry" />
        </mxCell>
        <mxCell id="lw7sW2d9eHdYeLSf7W9c-65" value="modal" style="ellipse;whiteSpace=wrap;html=1;rounded=0;" vertex="1" parent="1">
          <mxGeometry x="610" y="30" width="60" height="40" as="geometry" />
        </mxCell>
        <mxCell id="lw7sW2d9eHdYeLSf7W9c-75" style="rounded=0;orthogonalLoop=1;jettySize=auto;html=1;entryX=0.5;entryY=1;entryDx=0;entryDy=0;endArrow=none;endFill=0;" edge="1" parent="1" source="lw7sW2d9eHdYeLSf7W9c-69" target="lw7sW2d9eHdYeLSf7W9c-72">
          <mxGeometry relative="1" as="geometry" />
        </mxCell>
        <mxCell id="lw7sW2d9eHdYeLSf7W9c-76" style="rounded=0;orthogonalLoop=1;jettySize=auto;html=1;exitX=0.5;exitY=0;exitDx=0;exitDy=0;entryX=0.5;entryY=1;entryDx=0;entryDy=0;endArrow=none;endFill=0;" edge="1" parent="1" source="lw7sW2d9eHdYeLSf7W9c-69" target="lw7sW2d9eHdYeLSf7W9c-73">
          <mxGeometry relative="1" as="geometry" />
        </mxCell>
        <mxCell id="lw7sW2d9eHdYeLSf7W9c-77" style="rounded=0;orthogonalLoop=1;jettySize=auto;html=1;exitX=0.5;exitY=0;exitDx=0;exitDy=0;entryX=0.5;entryY=1;entryDx=0;entryDy=0;endArrow=none;endFill=0;" edge="1" parent="1" source="lw7sW2d9eHdYeLSf7W9c-69" target="lw7sW2d9eHdYeLSf7W9c-74">
          <mxGeometry relative="1" as="geometry" />
        </mxCell>
        <mxCell id="lw7sW2d9eHdYeLSf7W9c-78" style="rounded=0;orthogonalLoop=1;jettySize=auto;html=1;exitX=0.5;exitY=0;exitDx=0;exitDy=0;entryX=0.5;entryY=1;entryDx=0;entryDy=0;endArrow=none;endFill=0;" edge="1" parent="1" source="lw7sW2d9eHdYeLSf7W9c-69" target="lw7sW2d9eHdYeLSf7W9c-70">
          <mxGeometry relative="1" as="geometry" />
        </mxCell>
        <mxCell id="lw7sW2d9eHdYeLSf7W9c-79" style="rounded=0;orthogonalLoop=1;jettySize=auto;html=1;entryX=0.5;entryY=1;entryDx=0;entryDy=0;exitX=0.5;exitY=0;exitDx=0;exitDy=0;endArrow=none;endFill=0;" edge="1" parent="1" source="lw7sW2d9eHdYeLSf7W9c-69" target="lw7sW2d9eHdYeLSf7W9c-71">
          <mxGeometry relative="1" as="geometry" />
        </mxCell>
        <mxCell id="lw7sW2d9eHdYeLSf7W9c-69" value="route" style="rounded=0;whiteSpace=wrap;html=1;" vertex="1" parent="1">
          <mxGeometry x="1145" y="180" width="120" height="60" as="geometry" />
        </mxCell>
        <mxCell id="lw7sW2d9eHdYeLSf7W9c-70" value="id" style="ellipse;whiteSpace=wrap;html=1;rounded=0;" vertex="1" parent="1">
          <mxGeometry x="1090" y="30" width="50" height="40" as="geometry" />
        </mxCell>
        <mxCell id="lw7sW2d9eHdYeLSf7W9c-71" value="destination" style="ellipse;whiteSpace=wrap;html=1;rounded=0;" vertex="1" parent="1">
          <mxGeometry x="1020" y="30" width="60" height="40" as="geometry" />
        </mxCell>
        <mxCell id="lw7sW2d9eHdYeLSf7W9c-72" value="origin" style="ellipse;whiteSpace=wrap;html=1;rounded=0;" vertex="1" parent="1">
          <mxGeometry x="1150" y="30" width="50" height="40" as="geometry" />
        </mxCell>
        <mxCell id="lw7sW2d9eHdYeLSf7W9c-73" value="distance" style="ellipse;whiteSpace=wrap;html=1;rounded=0;" vertex="1" parent="1">
          <mxGeometry x="1210" y="30" width="70" height="40" as="geometry" />
        </mxCell>
        <mxCell id="lw7sW2d9eHdYeLSf7W9c-74" value="classification" style="ellipse;whiteSpace=wrap;html=1;rounded=0;" vertex="1" parent="1">
          <mxGeometry x="1285" y="30" width="77.5" height="40" as="geometry" />
        </mxCell>
        <mxCell id="lw7sW2d9eHdYeLSf7W9c-155" value="" style="rounded=0;orthogonalLoop=1;jettySize=auto;html=1;endArrow=none;endFill=0;exitX=0.5;exitY=1;exitDx=0;exitDy=0;" edge="1" parent="1" source="lw7sW2d9eHdYeLSf7W9c-156" target="lw7sW2d9eHdYeLSf7W9c-157">
          <mxGeometry relative="1" as="geometry">
            <mxPoint x="247.5" y="640" as="sourcePoint" />
          </mxGeometry>
        </mxCell>
        <mxCell id="lw7sW2d9eHdYeLSf7W9c-156" value="transaction" style="rounded=0;whiteSpace=wrap;html=1;" vertex="1" parent="1">
          <mxGeometry x="100" y="580" width="120" height="60" as="geometry" />
        </mxCell>
        <mxCell id="lw7sW2d9eHdYeLSf7W9c-157" value="id" style="ellipse;whiteSpace=wrap;html=1;rounded=0;" vertex="1" parent="1">
          <mxGeometry x="87.5" y="735" width="50" height="40" as="geometry" />
        </mxCell>
        <mxCell id="lw7sW2d9eHdYeLSf7W9c-158" value="date" style="ellipse;whiteSpace=wrap;html=1;rounded=0;" vertex="1" parent="1">
          <mxGeometry x="17.5" y="735" width="60" height="40" as="geometry" />
        </mxCell>
        <mxCell id="lw7sW2d9eHdYeLSf7W9c-159" value="" style="rounded=0;orthogonalLoop=1;jettySize=auto;html=1;exitX=0.5;exitY=1;exitDx=0;exitDy=0;endArrow=none;endFill=0;" edge="1" parent="1" source="lw7sW2d9eHdYeLSf7W9c-156" target="lw7sW2d9eHdYeLSf7W9c-158">
          <mxGeometry relative="1" as="geometry">
            <mxPoint x="-52.5" y="660" as="sourcePoint" />
          </mxGeometry>
        </mxCell>
        <mxCell id="lw7sW2d9eHdYeLSf7W9c-160" value="" style="rounded=0;orthogonalLoop=1;jettySize=auto;html=1;exitX=0.5;exitY=1;exitDx=0;exitDy=0;endArrow=none;endFill=0;" edge="1" parent="1" source="lw7sW2d9eHdYeLSf7W9c-156" target="lw7sW2d9eHdYeLSf7W9c-161">
          <mxGeometry relative="1" as="geometry">
            <mxPoint x="147.5" y="665" as="sourcePoint" />
          </mxGeometry>
        </mxCell>
        <mxCell id="lw7sW2d9eHdYeLSf7W9c-161" value="amount" style="ellipse;whiteSpace=wrap;html=1;rounded=0;" vertex="1" parent="1">
          <mxGeometry x="147.5" y="735" width="50" height="40" as="geometry" />
        </mxCell>
        <mxCell id="lw7sW2d9eHdYeLSf7W9c-162" value="description" style="ellipse;whiteSpace=wrap;html=1;rounded=0;" vertex="1" parent="1">
          <mxGeometry x="207.5" y="735" width="70" height="40" as="geometry" />
        </mxCell>
        <mxCell id="lw7sW2d9eHdYeLSf7W9c-163" value="" style="rounded=0;orthogonalLoop=1;jettySize=auto;html=1;endArrow=none;endFill=0;exitX=0.5;exitY=1;exitDx=0;exitDy=0;" edge="1" parent="1" source="lw7sW2d9eHdYeLSf7W9c-156" target="lw7sW2d9eHdYeLSf7W9c-162">
          <mxGeometry relative="1" as="geometry">
            <mxPoint x="247.5" y="640" as="sourcePoint" />
          </mxGeometry>
        </mxCell>
        <mxCell id="lw7sW2d9eHdYeLSf7W9c-164" value="" style="rounded=0;orthogonalLoop=1;jettySize=auto;html=1;endArrow=none;endFill=0;exitX=0.5;exitY=0;exitDx=0;exitDy=0;" edge="1" source="lw7sW2d9eHdYeLSf7W9c-225" target="lw7sW2d9eHdYeLSf7W9c-170" parent="1">
          <mxGeometry relative="1" as="geometry">
            <mxPoint x="183.455444858178" y="180" as="sourcePoint" />
          </mxGeometry>
        </mxCell>
        <mxCell id="lw7sW2d9eHdYeLSf7W9c-165" style="rounded=0;orthogonalLoop=1;jettySize=auto;html=1;entryX=0.5;entryY=1;entryDx=0;entryDy=0;endArrow=none;endFill=0;exitX=0.5;exitY=0;exitDx=0;exitDy=0;" edge="1" source="lw7sW2d9eHdYeLSf7W9c-225" target="lw7sW2d9eHdYeLSf7W9c-169" parent="1">
          <mxGeometry relative="1" as="geometry">
            <mxPoint x="157.32142857142844" y="180" as="sourcePoint" />
          </mxGeometry>
        </mxCell>
        <mxCell id="lw7sW2d9eHdYeLSf7W9c-166" style="rounded=0;orthogonalLoop=1;jettySize=auto;html=1;entryX=0.5;entryY=1;entryDx=0;entryDy=0;endArrow=none;endFill=0;exitX=0.5;exitY=0;exitDx=0;exitDy=0;" edge="1" source="lw7sW2d9eHdYeLSf7W9c-225" target="lw7sW2d9eHdYeLSf7W9c-168" parent="1">
          <mxGeometry relative="1" as="geometry">
            <mxPoint x="143.92857142857156" y="180" as="sourcePoint" />
          </mxGeometry>
        </mxCell>
        <mxCell id="lw7sW2d9eHdYeLSf7W9c-168" value="major pilot" style="ellipse;whiteSpace=wrap;html=1;rounded=0;" vertex="1" parent="1">
          <mxGeometry x="50" y="30" width="70" height="40" as="geometry" />
        </mxCell>
        <mxCell id="lw7sW2d9eHdYeLSf7W9c-169" value="hostes1" style="ellipse;whiteSpace=wrap;html=1;rounded=0;" vertex="1" parent="1">
          <mxGeometry x="120" y="30" width="55" height="40" as="geometry" />
        </mxCell>
        <mxCell id="lw7sW2d9eHdYeLSf7W9c-170" value="assistant_pilot" style="ellipse;whiteSpace=wrap;html=1;rounded=0;" vertex="1" parent="1">
          <mxGeometry x="240" y="30" width="90" height="40" as="geometry" />
        </mxCell>
        <mxCell id="lw7sW2d9eHdYeLSf7W9c-172" style="rounded=0;orthogonalLoop=1;jettySize=auto;html=1;entryX=0.5;entryY=1;entryDx=0;entryDy=0;endArrow=none;endFill=0;exitX=0.5;exitY=0;exitDx=0;exitDy=0;" edge="1" target="lw7sW2d9eHdYeLSf7W9c-173" parent="1" source="lw7sW2d9eHdYeLSf7W9c-225">
          <mxGeometry relative="1" as="geometry">
            <mxPoint x="160" y="180" as="sourcePoint" />
          </mxGeometry>
        </mxCell>
        <mxCell id="lw7sW2d9eHdYeLSf7W9c-173" value="hostes2" style="ellipse;whiteSpace=wrap;html=1;rounded=0;" vertex="1" parent="1">
          <mxGeometry x="180" y="30" width="50" height="40" as="geometry" />
        </mxCell>
        <mxCell id="lw7sW2d9eHdYeLSf7W9c-176" style="rounded=0;orthogonalLoop=1;jettySize=auto;html=1;entryX=0;entryY=0.5;entryDx=0;entryDy=0;endArrow=none;endFill=0;shape=link;" edge="1" parent="1" source="lw7sW2d9eHdYeLSf7W9c-174" target="lw7sW2d9eHdYeLSf7W9c-36">
          <mxGeometry relative="1" as="geometry" />
        </mxCell>
        <mxCell id="lw7sW2d9eHdYeLSf7W9c-177" value="M" style="edgeLabel;html=1;align=center;verticalAlign=middle;resizable=0;points=[];" vertex="1" connectable="0" parent="lw7sW2d9eHdYeLSf7W9c-176">
          <mxGeometry x="-0.0044" y="-4" relative="1" as="geometry">
            <mxPoint x="-1" y="-1" as="offset" />
          </mxGeometry>
        </mxCell>
        <mxCell id="lw7sW2d9eHdYeLSf7W9c-174" value="work" style="rhombus;whiteSpace=wrap;html=1;rounded=0;" vertex="1" parent="1">
          <mxGeometry x="810" y="570" width="80" height="80" as="geometry" />
        </mxCell>
        <mxCell id="lw7sW2d9eHdYeLSf7W9c-183" style="rounded=0;orthogonalLoop=1;jettySize=auto;html=1;entryX=0.5;entryY=1;entryDx=0;entryDy=0;endArrow=none;endFill=0;shape=link;" edge="1" parent="1" source="lw7sW2d9eHdYeLSf7W9c-181" target="lw7sW2d9eHdYeLSf7W9c-62">
          <mxGeometry relative="1" as="geometry" />
        </mxCell>
        <mxCell id="lw7sW2d9eHdYeLSf7W9c-184" value="M" style="edgeLabel;html=1;align=center;verticalAlign=middle;resizable=0;points=[];" vertex="1" connectable="0" parent="lw7sW2d9eHdYeLSf7W9c-183">
          <mxGeometry x="0.0843" y="-1" relative="1" as="geometry">
            <mxPoint as="offset" />
          </mxGeometry>
        </mxCell>
        <mxCell id="lw7sW2d9eHdYeLSf7W9c-181" value="own" style="rhombus;whiteSpace=wrap;html=1;rounded=0;" vertex="1" parent="1">
          <mxGeometry x="540" y="370" width="80" height="80" as="geometry" />
        </mxCell>
        <mxCell id="lw7sW2d9eHdYeLSf7W9c-189" style="rounded=0;orthogonalLoop=1;jettySize=auto;html=1;entryX=0;entryY=0.5;entryDx=0;entryDy=0;endArrow=none;endFill=0;shape=link;" edge="1" parent="1" source="lw7sW2d9eHdYeLSf7W9c-187" target="lw7sW2d9eHdYeLSf7W9c-69">
          <mxGeometry relative="1" as="geometry" />
        </mxCell>
        <mxCell id="lw7sW2d9eHdYeLSf7W9c-190" value="N" style="edgeLabel;html=1;align=center;verticalAlign=middle;resizable=0;points=[];" vertex="1" connectable="0" parent="lw7sW2d9eHdYeLSf7W9c-189">
          <mxGeometry x="0.2457" relative="1" as="geometry">
            <mxPoint as="offset" />
          </mxGeometry>
        </mxCell>
        <mxCell id="lw7sW2d9eHdYeLSf7W9c-197" style="rounded=0;orthogonalLoop=1;jettySize=auto;html=1;entryX=0.5;entryY=0;entryDx=0;entryDy=0;endArrow=none;endFill=0;exitX=0.5;exitY=1;exitDx=0;exitDy=0;" edge="1" parent="1" source="lw7sW2d9eHdYeLSf7W9c-187" target="lw7sW2d9eHdYeLSf7W9c-201">
          <mxGeometry relative="1" as="geometry">
            <mxPoint x="810" y="310" as="targetPoint" />
          </mxGeometry>
        </mxCell>
        <mxCell id="lw7sW2d9eHdYeLSf7W9c-198" style="rounded=0;orthogonalLoop=1;jettySize=auto;html=1;entryX=0.5;entryY=0;entryDx=0;entryDy=0;endArrow=none;endFill=0;exitX=0.5;exitY=1;exitDx=0;exitDy=0;" edge="1" parent="1" source="lw7sW2d9eHdYeLSf7W9c-187" target="lw7sW2d9eHdYeLSf7W9c-202">
          <mxGeometry relative="1" as="geometry">
            <mxPoint x="850" y="310" as="targetPoint" />
          </mxGeometry>
        </mxCell>
        <mxCell id="lw7sW2d9eHdYeLSf7W9c-199" style="rounded=0;orthogonalLoop=1;jettySize=auto;html=1;entryX=0.5;entryY=0;entryDx=0;entryDy=0;endArrow=none;endFill=0;exitX=0.5;exitY=1;exitDx=0;exitDy=0;" edge="1" parent="1" source="lw7sW2d9eHdYeLSf7W9c-187" target="lw7sW2d9eHdYeLSf7W9c-204">
          <mxGeometry relative="1" as="geometry">
            <mxPoint x="890" y="310" as="targetPoint" />
            <mxPoint x="860" y="260" as="sourcePoint" />
          </mxGeometry>
        </mxCell>
        <mxCell id="lw7sW2d9eHdYeLSf7W9c-200" style="rounded=0;orthogonalLoop=1;jettySize=auto;html=1;entryX=0.5;entryY=0;entryDx=0;entryDy=0;endArrow=none;endFill=0;exitX=0.5;exitY=1;exitDx=0;exitDy=0;" edge="1" parent="1" source="lw7sW2d9eHdYeLSf7W9c-187" target="lw7sW2d9eHdYeLSf7W9c-205">
          <mxGeometry relative="1" as="geometry">
            <mxPoint x="940" y="330" as="targetPoint" />
          </mxGeometry>
        </mxCell>
        <mxCell id="lw7sW2d9eHdYeLSf7W9c-187" value="assign" style="rhombus;whiteSpace=wrap;html=1;rounded=0;" vertex="1" parent="1">
          <mxGeometry x="880" y="170" width="80" height="80" as="geometry" />
        </mxCell>
        <mxCell id="lw7sW2d9eHdYeLSf7W9c-201" value="no_passengers" style="ellipse;whiteSpace=wrap;html=1;rounded=0;" vertex="1" parent="1">
          <mxGeometry x="670" y="340" width="90" height="40" as="geometry" />
        </mxCell>
        <mxCell id="lw7sW2d9eHdYeLSf7W9c-202" value="price/passenger" style="ellipse;whiteSpace=wrap;html=1;rounded=0;" vertex="1" parent="1">
          <mxGeometry x="760" y="340" width="90" height="40" as="geometry" />
        </mxCell>
        <mxCell id="lw7sW2d9eHdYeLSf7W9c-204" value="departure_time/date" style="ellipse;whiteSpace=wrap;html=1;rounded=0;" vertex="1" parent="1">
          <mxGeometry x="860" y="350" width="120" height="40" as="geometry" />
        </mxCell>
        <mxCell id="lw7sW2d9eHdYeLSf7W9c-205" value="arrival_time/date" style="ellipse;whiteSpace=wrap;html=1;rounded=0;" vertex="1" parent="1">
          <mxGeometry x="1100" y="350" width="100" height="40" as="geometry" />
        </mxCell>
        <mxCell id="lw7sW2d9eHdYeLSf7W9c-207" value="spent_time" style="ellipse;whiteSpace=wrap;html=1;rounded=0;" vertex="1" parent="1">
          <mxGeometry x="990" y="350" width="100" height="40" as="geometry" />
        </mxCell>
        <mxCell id="lw7sW2d9eHdYeLSf7W9c-210" style="rounded=0;orthogonalLoop=1;jettySize=auto;html=1;entryX=0.5;entryY=0;entryDx=0;entryDy=0;endArrow=none;endFill=0;exitX=0.5;exitY=1;exitDx=0;exitDy=0;" edge="1" parent="1" source="lw7sW2d9eHdYeLSf7W9c-187" target="lw7sW2d9eHdYeLSf7W9c-207">
          <mxGeometry relative="1" as="geometry">
            <mxPoint x="1040" y="360" as="targetPoint" />
            <mxPoint x="883" y="247" as="sourcePoint" />
          </mxGeometry>
        </mxCell>
        <mxCell id="lw7sW2d9eHdYeLSf7W9c-214" style="edgeStyle=orthogonalEdgeStyle;rounded=0;orthogonalLoop=1;jettySize=auto;html=1;entryX=1;entryY=0.5;entryDx=0;entryDy=0;curved=1;shape=link;" edge="1" parent="1" source="lw7sW2d9eHdYeLSf7W9c-212" target="lw7sW2d9eHdYeLSf7W9c-225">
          <mxGeometry relative="1" as="geometry">
            <mxPoint x="220" y="210" as="targetPoint" />
          </mxGeometry>
        </mxCell>
        <mxCell id="lw7sW2d9eHdYeLSf7W9c-223" value="1" style="edgeLabel;html=1;align=center;verticalAlign=middle;resizable=0;points=[];" vertex="1" connectable="0" parent="lw7sW2d9eHdYeLSf7W9c-214">
          <mxGeometry x="-0.413" y="3" relative="1" as="geometry">
            <mxPoint as="offset" />
          </mxGeometry>
        </mxCell>
        <mxCell id="lw7sW2d9eHdYeLSf7W9c-212" value="has" style="rhombus;whiteSpace=wrap;html=1;rounded=0;" vertex="1" parent="1">
          <mxGeometry x="340" y="170" width="80" height="80" as="geometry" />
        </mxCell>
        <mxCell id="lw7sW2d9eHdYeLSf7W9c-219" value="" style="edgeStyle=orthogonalEdgeStyle;rounded=0;orthogonalLoop=1;jettySize=auto;html=1;" edge="1" parent="1" source="lw7sW2d9eHdYeLSf7W9c-217" target="lw7sW2d9eHdYeLSf7W9c-156">
          <mxGeometry relative="1" as="geometry" />
        </mxCell>
        <mxCell id="lw7sW2d9eHdYeLSf7W9c-221" value="M" style="edgeLabel;html=1;align=center;verticalAlign=middle;resizable=0;points=[];" vertex="1" connectable="0" parent="lw7sW2d9eHdYeLSf7W9c-219">
          <mxGeometry x="-0.5696" relative="1" as="geometry">
            <mxPoint y="-1" as="offset" />
          </mxGeometry>
        </mxCell>
        <mxCell id="lw7sW2d9eHdYeLSf7W9c-217" value="buy/sell" style="rhombus;whiteSpace=wrap;html=1;rounded=0;" vertex="1" parent="1">
          <mxGeometry x="335" y="570" width="80" height="80" as="geometry" />
        </mxCell>
        <mxCell id="lw7sW2d9eHdYeLSf7W9c-225" value="crew" style="shape=ext;margin=3;double=1;whiteSpace=wrap;html=1;align=center;" vertex="1" parent="1">
          <mxGeometry x="90" y="185" width="120" height="50" as="geometry" />
        </mxCell>
      </root>
    </mxGraphModel>
  </diagram>
</mxfile>
